<svg width="425" height="103" viewBox="0 0 425 103" fill="none" xmlns="http://www.w3.org/2000/svg">
<g id="Tranquilo" filter="url(#filter0_d)">
<path d="M39.6094 74H26.2031V20.2344H6V6.78125H59.7656V20.2344H39.6094V74ZM73.9219 74H61.125V23.7969H64.2188L68.4375 29.75C70.5 27.875 72.8438 26.4375 75.4688 25.4375C78.0938 24.4062 80.8125 23.8906 83.625 23.8906H94.9219V36.6406H83.625C82.2812 36.6406 81.0156 36.8906 79.8281 37.3906C78.6406 37.8906 77.6094 38.5781 76.7344 39.4531C75.8594 40.3281 75.1719 41.3594 74.6719 42.5469C74.1719 43.7344 73.9219 45 73.9219 46.3438V74ZM148.547 74H145.453L140.484 67.1094C139.266 68.2031 137.969 69.2344 136.594 70.2031C135.25 71.1406 133.828 71.9688 132.328 72.6875C130.828 73.375 129.281 73.9219 127.688 74.3281C126.125 74.7344 124.531 74.9375 122.906 74.9375C119.375 74.9375 116.047 74.3438 112.922 73.1562C109.828 71.9688 107.109 70.25 104.766 68C102.453 65.7188 100.625 62.9375 99.2812 59.6562C97.9375 56.375 97.2656 52.6406 97.2656 48.4531C97.2656 44.5469 97.9375 40.9688 99.2812 37.7188C100.625 34.4375 102.453 31.625 104.766 29.2812C107.109 26.9375 109.828 25.125 112.922 23.8438C116.047 22.5312 119.375 21.875 122.906 21.875C124.531 21.875 126.141 22.0781 127.734 22.4844C129.328 22.8906 130.875 23.4531 132.375 24.1719C133.875 24.8906 135.297 25.7344 136.641 26.7031C138.016 27.6719 139.297 28.7188 140.484 29.8438L145.453 23.8906H148.547V74ZM135.656 48.4531C135.656 46.7031 135.312 45.0156 134.625 43.3906C133.969 41.7344 133.062 40.2812 131.906 39.0312C130.75 37.75 129.391 36.7344 127.828 35.9844C126.297 35.2031 124.656 34.8125 122.906 34.8125C121.156 34.8125 119.5 35.1094 117.938 35.7031C116.406 36.2969 115.062 37.1719 113.906 38.3281C112.781 39.4844 111.891 40.9219 111.234 42.6406C110.578 44.3281 110.25 46.2656 110.25 48.4531C110.25 50.6406 110.578 52.5938 111.234 54.3125C111.891 56 112.781 57.4219 113.906 58.5781C115.062 59.7344 116.406 60.6094 117.938 61.2031C119.5 61.7969 121.156 62.0938 122.906 62.0938C124.656 62.0938 126.297 61.7188 127.828 60.9688C129.391 60.1875 130.75 59.1719 131.906 57.9219C133.062 56.6406 133.969 55.1875 134.625 53.5625C135.312 51.9062 135.656 50.2031 135.656 48.4531ZM171.141 74H158.344V23.7969H161.438L165.656 28.6719C167.719 26.7969 170.047 25.3594 172.641 24.3594C175.266 23.3281 178 22.8125 180.844 22.8125C183.906 22.8125 186.797 23.4062 189.516 24.5938C192.234 25.75 194.609 27.3594 196.641 29.4219C198.672 31.4531 200.266 33.8438 201.422 36.5938C202.609 39.3125 203.203 42.2188 203.203 45.3125V74H190.406V45.3125C190.406 44 190.156 42.7656 189.656 41.6094C189.156 40.4219 188.469 39.3906 187.594 38.5156C186.719 37.6406 185.703 36.9531 184.547 36.4531C183.391 35.9531 182.156 35.7031 180.844 35.7031C179.5 35.7031 178.234 35.9531 177.047 36.4531C175.859 36.9531 174.828 37.6406 173.953 38.5156C173.078 39.3906 172.391 40.4219 171.891 41.6094C171.391 42.7656 171.141 44 171.141 45.3125V74ZM260.953 93.125H248.062V70.625C247.094 71.1875 246.094 71.7344 245.062 72.2656C244.062 72.7969 243.016 73.2812 241.922 73.7188C240.859 74.125 239.766 74.4531 238.641 74.7031C237.547 74.9531 236.438 75.0781 235.312 75.0781C231.781 75.0781 228.453 74.4375 225.328 73.1562C222.234 71.8438 219.516 70.0156 217.172 67.6719C214.859 65.3281 213.031 62.5312 211.688 59.2812C210.344 56 209.672 52.3906 209.672 48.4531C209.672 44.4844 210.344 40.875 211.688 37.625C213.031 34.3438 214.859 31.5469 217.172 29.2344C219.516 26.9219 222.234 25.1406 225.328 23.8906C228.453 22.6094 231.781 21.9688 235.312 21.9688C236.938 21.9688 238.531 22.1719 240.094 22.5781C241.688 22.9844 243.234 23.5469 244.734 24.2656C246.234 24.9531 247.656 25.7812 249 26.75C250.375 27.7188 251.672 28.75 252.891 29.8438L257.859 23.8906H260.953V93.125ZM248.062 48.4531C248.062 46.7031 247.719 45.0156 247.031 43.3906C246.375 41.7344 245.469 40.2812 244.312 39.0312C243.156 37.75 241.797 36.7344 240.234 35.9844C238.703 35.2031 237.062 34.8125 235.312 34.8125C233.562 34.8125 231.906 35.1406 230.344 35.7969C228.812 36.4219 227.469 37.3281 226.312 38.5156C225.188 39.7031 224.297 41.1406 223.641 42.8281C222.984 44.4844 222.656 46.3594 222.656 48.4531C222.656 50.6094 222.984 52.5469 223.641 54.2656C224.297 55.9531 225.188 57.375 226.312 58.5312C227.469 59.6875 228.812 60.5781 230.344 61.2031C231.906 61.7969 233.562 62.0938 235.312 62.0938C237.062 62.0938 238.703 61.7188 240.234 60.9688C241.797 60.1875 243.156 59.1719 244.312 57.9219C245.469 56.6406 246.375 55.1875 247.031 53.5625C247.719 51.9062 248.062 50.2031 248.062 48.4531ZM307.641 68.1406C306.609 69.0781 305.5 69.9688 304.312 70.8125C303.156 71.625 301.938 72.3438 300.656 72.9688C299.375 73.5625 298.047 74.0312 296.672 74.375C295.328 74.75 293.953 74.9375 292.547 74.9375C289.453 74.9375 286.547 74.3906 283.828 73.2969C281.109 72.2031 278.719 70.6562 276.656 68.6562C274.625 66.625 273.016 64.1719 271.828 61.2969C270.672 58.3906 270.094 55.1406 270.094 51.5469V23.7969H282.844V51.5469C282.844 53.2344 283.094 54.75 283.594 56.0938C284.125 57.4062 284.828 58.5156 285.703 59.4219C286.578 60.3281 287.594 61.0156 288.75 61.4844C289.938 61.9531 291.203 62.1875 292.547 62.1875C293.859 62.1875 295.094 61.8906 296.25 61.2969C297.438 60.6719 298.469 59.8594 299.344 58.8594C300.219 57.8594 300.906 56.7344 301.406 55.4844C301.906 54.2031 302.156 52.8906 302.156 51.5469V23.7969H314.953V74H311.859L307.641 68.1406ZM339.844 10.1562C339.844 11.3437 339.609 12.4531 339.141 13.4844C338.703 14.5156 338.094 15.4219 337.312 16.2031C336.531 16.9531 335.609 17.5625 334.547 18.0312C333.516 18.4688 332.406 18.6875 331.219 18.6875C330.031 18.6875 328.906 18.4688 327.844 18.0312C326.812 17.5625 325.906 16.9531 325.125 16.2031C324.375 15.4219 323.766 14.5156 323.297 13.4844C322.859 12.4531 322.641 11.3437 322.641 10.1562C322.641 9 322.859 7.90625 323.297 6.875C323.766 5.8125 324.375 4.90625 325.125 4.15625C325.906 3.375 326.812 2.76562 327.844 2.32812C328.906 1.85938 330.031 1.625 331.219 1.625C332.406 1.625 333.516 1.85938 334.547 2.32812C335.609 2.76562 336.531 3.375 337.312 4.15625C338.094 4.90625 338.703 5.8125 339.141 6.875C339.609 7.90625 339.844 9 339.844 10.1562ZM337.641 74H324.75V23.7969H337.641V74ZM360.328 74H347.438V3.82812H360.328V74ZM418.641 48.4531C418.641 52.2031 417.969 55.7031 416.625 58.9531C415.281 62.1719 413.453 64.9688 411.141 67.3438C408.828 69.6875 406.109 71.5469 402.984 72.9219C399.891 74.2656 396.562 74.9375 393 74.9375C389.469 74.9375 386.141 74.2656 383.016 72.9219C379.922 71.5469 377.203 69.6875 374.859 67.3438C372.547 64.9688 370.719 62.1719 369.375 58.9531C368.031 55.7031 367.359 52.2031 367.359 48.4531C367.359 44.6406 368.031 41.1094 369.375 37.8594C370.719 34.6094 372.547 31.8125 374.859 29.4688C377.203 27.0938 379.922 25.2344 383.016 23.8906C386.141 22.5469 389.469 21.875 393 21.875C396.562 21.875 399.891 22.5156 402.984 23.7969C406.109 25.0469 408.828 26.8438 411.141 29.1875C413.453 31.5 415.281 34.2969 416.625 37.5781C417.969 40.8281 418.641 44.4531 418.641 48.4531ZM405.75 48.4531C405.75 46.3906 405.406 44.5312 404.719 42.875C404.062 41.1875 403.156 39.75 402 38.5625C400.844 37.3438 399.484 36.4219 397.922 35.7969C396.391 35.1406 394.75 34.8125 393 34.8125C391.25 34.8125 389.594 35.1406 388.031 35.7969C386.5 36.4219 385.156 37.3438 384 38.5625C382.875 39.75 381.984 41.1875 381.328 42.875C380.672 44.5312 380.344 46.3906 380.344 48.4531C380.344 50.3906 380.672 52.1875 381.328 53.8438C381.984 55.5 382.875 56.9375 384 58.1562C385.156 59.375 386.5 60.3438 388.031 61.0625C389.594 61.75 391.25 62.0938 393 62.0938C394.75 62.0938 396.391 61.7656 397.922 61.1094C399.484 60.4531 400.844 59.5312 402 58.3438C403.156 57.1562 404.062 55.7188 404.719 54.0312C405.406 52.3438 405.75 50.4844 405.75 48.4531Z" fill="white"/>
<path d="M39.6094 74V75.5H41.1094V74H39.6094ZM26.2031 74H24.7031V75.5H26.2031V74ZM26.2031 20.2344H27.7031V18.7344H26.2031V20.2344ZM6 20.2344H4.5V21.7344H6V20.2344ZM6 6.78125V5.28125H4.5V6.78125H6ZM59.7656 6.78125H61.2656V5.28125H59.7656V6.78125ZM59.7656 20.2344V21.7344H61.2656V20.2344H59.7656ZM39.6094 20.2344V18.7344H38.1094V20.2344H39.6094ZM39.6094 72.5H26.2031V75.5H39.6094V72.5ZM27.7031 74V20.2344H24.7031V74H27.7031ZM26.2031 18.7344H6V21.7344H26.2031V18.7344ZM7.5 20.2344V6.78125H4.5V20.2344H7.5ZM6 8.28125H59.7656V5.28125H6V8.28125ZM58.2656 6.78125V20.2344H61.2656V6.78125H58.2656ZM59.7656 18.7344H39.6094V21.7344H59.7656V18.7344ZM38.1094 20.2344V74H41.1094V20.2344H38.1094ZM73.9219 74V75.5H75.4219V74H73.9219ZM61.125 74H59.625V75.5H61.125V74ZM61.125 23.7969V22.2969H59.625V23.7969H61.125ZM64.2188 23.7969L65.4426 22.9296L64.9942 22.2969H64.2188V23.7969ZM68.4375 29.75L67.2137 30.6173L68.1931 31.9994L69.4465 30.8599L68.4375 29.75ZM75.4688 25.4375L76.0027 26.8392L76.01 26.8365L76.0172 26.8336L75.4688 25.4375ZM94.9219 23.8906H96.4219V22.3906H94.9219V23.8906ZM94.9219 36.6406V38.1406H96.4219V36.6406H94.9219ZM73.9219 72.5H61.125V75.5H73.9219V72.5ZM62.625 74V23.7969H59.625V74H62.625ZM61.125 25.2969H64.2188V22.2969H61.125V25.2969ZM62.9949 24.6642L67.2137 30.6173L69.6613 28.8827L65.4426 22.9296L62.9949 24.6642ZM69.4465 30.8599C71.3692 29.112 73.5515 27.773 76.0027 26.8392L74.9348 24.0358C72.136 25.102 69.6308 26.638 67.4285 28.6401L69.4465 30.8599ZM76.0172 26.8336C78.468 25.8708 81.0007 25.3906 83.625 25.3906V22.3906C80.6243 22.3906 77.7195 22.9417 74.9203 24.0414L76.0172 26.8336ZM83.625 25.3906H94.9219V22.3906H83.625V25.3906ZM93.4219 23.8906V36.6406H96.4219V23.8906H93.4219ZM94.9219 35.1406H83.625V38.1406H94.9219V35.1406ZM83.625 35.1406C82.0901 35.1406 80.6257 35.4273 79.246 36.0082L80.4102 38.7731C81.4056 38.354 82.4724 38.1406 83.625 38.1406V35.1406ZM79.246 36.0082C77.8872 36.5803 76.6916 37.3746 75.6737 38.3925L77.795 40.5138C78.5272 39.7816 79.394 39.2009 80.4102 38.7731L79.246 36.0082ZM75.6737 38.3925C74.6559 39.4103 73.8616 40.606 73.2894 41.9648L76.0543 43.129C76.4822 42.1128 77.0629 41.2459 77.795 40.5138L75.6737 38.3925ZM73.2894 41.9648C72.7085 43.3444 72.4219 44.8088 72.4219 46.3438H75.4219C75.4219 45.1912 75.6352 44.1243 76.0543 43.129L73.2894 41.9648ZM72.4219 46.3438V74H75.4219V46.3438H72.4219ZM148.547 74V75.5H150.047V74H148.547ZM145.453 74L144.236 74.8773L144.685 75.5H145.453V74ZM140.484 67.1094L141.701 66.232L140.725 64.8782L139.483 65.993L140.484 67.1094ZM136.594 70.2031L137.452 71.4333L137.458 71.4293L136.594 70.2031ZM132.328 72.6875L132.953 74.0511L132.965 74.0458L132.976 74.0402L132.328 72.6875ZM127.688 74.3281L127.317 72.8746L127.31 72.8764L127.688 74.3281ZM112.922 73.1562L112.384 74.5566L112.389 74.5584L112.922 73.1562ZM104.766 68L103.712 69.0679L103.719 69.075L103.727 69.0821L104.766 68ZM99.2812 37.7188L100.667 38.2919L100.669 38.2872L99.2812 37.7188ZM104.766 29.2812L103.705 28.2206L103.698 28.2277L104.766 29.2812ZM112.922 23.8438L113.496 25.2296L113.503 25.2267L112.922 23.8438ZM136.641 26.7031L135.763 27.9199L135.77 27.9247L135.777 27.9293L136.641 26.7031ZM140.484 29.8438L139.453 30.9327L140.612 32.0313L141.636 30.8049L140.484 29.8438ZM145.453 23.8906V22.3906H144.751L144.302 22.9295L145.453 23.8906ZM148.547 23.8906H150.047V22.3906H148.547V23.8906ZM134.625 43.3906L133.23 43.9432L133.237 43.9592L133.244 43.9751L134.625 43.3906ZM131.906 39.0312L130.793 40.0362L130.799 40.043L130.805 40.0498L131.906 39.0312ZM127.828 35.9844L127.146 37.3205L127.163 37.3288L127.179 37.3367L127.828 35.9844ZM117.938 35.7031L117.405 34.3009L117.395 34.3046L117.938 35.7031ZM113.906 38.3281L112.846 37.2675L112.838 37.2747L112.831 37.2821L113.906 38.3281ZM111.234 42.6406L112.632 43.1843L112.636 43.1757L111.234 42.6406ZM111.234 54.3125L109.833 54.8476L109.836 54.8562L111.234 54.3125ZM113.906 58.5781L112.831 59.6242L112.838 59.6315L112.846 59.6388L113.906 58.5781ZM117.938 61.2031L117.395 62.6017L117.405 62.6053L117.938 61.2031ZM127.828 60.9688L128.488 62.3159L128.499 62.3104L127.828 60.9688ZM131.906 57.9219L133.007 58.9404L133.014 58.9337L133.02 58.9268L131.906 57.9219ZM134.625 53.5625L133.24 52.9874L133.237 52.9941L133.234 53.0008L134.625 53.5625ZM148.547 72.5H145.453V75.5H148.547V72.5ZM146.67 73.1227L141.701 66.232L139.268 67.9867L144.236 74.8773L146.67 73.1227ZM139.483 65.993C138.309 67.0464 137.058 68.0411 135.73 68.9769L137.458 71.4293C138.879 70.4276 140.223 69.3598 141.486 68.2257L139.483 65.993ZM135.735 68.9729C134.459 69.8633 133.108 70.6506 131.68 71.3348L132.976 74.0402C134.548 73.2869 136.041 72.418 137.452 71.4333L135.735 68.9729ZM131.703 71.3239C130.285 71.974 128.823 72.4907 127.317 72.8746L128.058 75.7816C129.739 75.3531 131.371 74.776 132.953 74.0511L131.703 71.3239ZM127.31 72.8764C125.872 73.2504 124.405 73.4375 122.906 73.4375V76.4375C124.658 76.4375 126.378 76.2184 128.065 75.7799L127.31 72.8764ZM122.906 73.4375C119.547 73.4375 116.4 72.8733 113.455 71.7541L112.389 74.5584C115.694 75.8142 119.203 76.4375 122.906 76.4375V73.4375ZM113.459 71.7559C110.548 70.6385 108.001 69.0267 105.804 66.9179L103.727 69.0821C106.218 71.4733 109.108 73.299 112.384 74.5566L113.459 71.7559ZM105.819 66.9321C103.663 64.8056 101.943 62.199 100.669 59.0878L97.8931 60.2247C99.3065 63.676 101.243 66.6319 103.712 69.0679L105.819 66.9321ZM100.669 59.0878C99.4116 56.0165 98.7656 52.4803 98.7656 48.4531H95.7656C95.7656 52.8009 96.4634 56.7335 97.8931 60.2247L100.669 59.0878ZM98.7656 48.4531C98.7656 44.7217 99.4067 41.341 100.667 38.2919L97.8951 37.1456C96.4683 40.5965 95.7656 44.372 95.7656 48.4531H98.7656ZM100.669 38.2872C101.945 35.1729 103.669 32.5289 105.833 30.3348L103.698 28.2277C101.238 30.7211 99.3053 33.7021 97.8931 37.1503L100.669 38.2872ZM105.826 30.3419C108.029 28.1389 110.582 26.4363 113.496 25.2296L112.348 22.4579C109.074 23.8137 106.189 25.7361 103.705 28.2206L105.826 30.3419ZM113.503 25.2267C116.436 23.9947 119.566 23.375 122.906 23.375V20.375C119.184 20.375 115.658 21.0678 112.341 22.4608L113.503 25.2267ZM122.906 23.375C124.405 23.375 125.89 23.5621 127.364 23.9379L128.105 21.0309C126.392 20.5941 124.658 20.375 122.906 20.375V23.375ZM127.364 23.9379C128.861 24.3195 130.315 24.848 131.727 25.5246L133.023 22.8192C131.435 22.0582 129.795 21.4618 128.105 21.0309L127.364 23.9379ZM131.727 25.5246C133.147 26.2051 134.492 27.0034 135.763 27.9199L137.518 25.4864C136.102 24.4654 134.603 23.5762 133.023 22.8192L131.727 25.5246ZM135.777 27.9293C137.094 28.8576 138.319 29.8588 139.453 30.9327L141.516 28.7548C140.275 27.5787 138.937 26.4861 137.505 25.4769L135.777 27.9293ZM141.636 30.8049L146.605 24.8518L144.302 22.9295L139.333 28.8826L141.636 30.8049ZM145.453 25.3906H148.547V22.3906H145.453V25.3906ZM147.047 23.8906V74H150.047V23.8906H147.047ZM137.156 48.4531C137.156 46.5006 136.772 44.6145 136.006 42.8062L133.244 43.9751C133.853 45.4167 134.156 46.9056 134.156 48.4531H137.156ZM136.02 42.8381C135.298 41.0178 134.295 39.4048 133.007 38.0127L130.805 40.0498C131.83 41.1577 132.639 42.451 133.23 43.9432L136.02 42.8381ZM133.02 38.0263C131.732 36.5995 130.215 35.4662 128.477 34.6321L127.179 37.3367C128.566 38.0026 129.768 38.9005 130.793 40.0362L133.02 38.0263ZM128.51 34.6482C126.764 33.7573 124.889 33.3125 122.906 33.3125V36.3125C124.424 36.3125 125.83 36.649 127.146 37.3205L128.51 34.6482ZM122.906 33.3125C120.983 33.3125 119.145 33.6395 117.405 34.3009L118.47 37.1053C119.855 36.5792 121.33 36.3125 122.906 36.3125V33.3125ZM117.395 34.3046C115.67 34.9734 114.15 35.9631 112.846 37.2675L114.967 39.3888C115.975 38.3806 117.142 37.6204 118.48 37.1017L117.395 34.3046ZM112.831 37.2821C111.545 38.6039 110.552 40.2227 109.833 42.1056L112.636 43.1757C113.229 41.621 114.017 40.3649 114.981 39.3742L112.831 37.2821ZM109.836 42.097C109.1 43.9897 108.75 46.1173 108.75 48.4531H111.75C111.75 46.4139 112.056 44.6665 112.632 43.1843L109.836 42.097ZM108.75 48.4531C108.75 50.7897 109.101 52.929 109.833 54.8476L112.636 53.7774C112.056 52.2585 111.75 50.4915 111.75 48.4531H108.75ZM109.836 54.8562C110.557 56.7082 111.55 58.3072 112.831 59.6242L114.981 57.5321C114.013 56.5366 113.225 55.2918 112.632 53.7688L109.836 54.8562ZM112.846 59.6388C114.15 60.9431 115.67 61.9329 117.395 62.6017L118.48 59.8046C117.142 59.2859 115.975 58.5256 114.967 57.5175L112.846 59.6388ZM117.405 62.6053C119.145 63.2667 120.983 63.5938 122.906 63.5938V60.5938C121.33 60.5938 119.855 60.327 118.47 59.8009L117.405 62.6053ZM122.906 63.5938C124.879 63.5938 126.746 63.1692 128.488 62.3158L127.168 59.6217C125.848 60.2683 124.434 60.5938 122.906 60.5938V63.5938ZM128.499 62.3104C130.219 61.4504 131.725 60.3267 133.007 58.9404L130.805 56.9033C129.775 58.0171 128.562 58.9246 127.157 59.6271L128.499 62.3104ZM133.02 58.9268C134.296 57.5132 135.295 55.9095 136.016 54.1242L133.234 53.0008C132.643 54.4655 131.829 55.7681 130.793 56.9169L133.02 58.9268ZM136.01 54.1376C136.772 52.3036 137.156 50.4054 137.156 48.4531H134.156C134.156 50.0008 133.853 51.5089 133.24 52.9874L136.01 54.1376ZM171.141 74V75.5H172.641V74H171.141ZM158.344 74H156.844V75.5H158.344V74ZM158.344 23.7969V22.2969H156.844V23.7969H158.344ZM161.438 23.7969L162.572 22.8153L162.123 22.2969H161.438V23.7969ZM165.656 28.6719L164.522 29.6534L165.528 30.8158L166.665 29.7818L165.656 28.6719ZM172.641 24.3594L173.18 25.759L173.189 25.7555L172.641 24.3594ZM189.516 24.5938L188.915 25.9683L188.922 25.9713L188.929 25.9741L189.516 24.5938ZM196.641 29.4219L195.572 30.4744L195.58 30.4825L196.641 29.4219ZM201.422 36.5938L200.039 37.1751L200.043 37.1847L200.047 37.1941L201.422 36.5938ZM203.203 74V75.5H204.703V74H203.203ZM190.406 74H188.906V75.5H190.406V74ZM189.656 41.6094L188.274 42.1915L188.277 42.1981L188.279 42.2047L189.656 41.6094ZM171.891 41.6094L173.267 42.2047L173.27 42.1981L173.273 42.1915L171.891 41.6094ZM171.141 72.5H158.344V75.5H171.141V72.5ZM159.844 74V23.7969H156.844V74H159.844ZM158.344 25.2969H161.438V22.2969H158.344V25.2969ZM160.303 24.7784L164.522 29.6534L166.791 27.6903L162.572 22.8153L160.303 24.7784ZM166.665 29.7818C168.591 28.0312 170.76 26.6921 173.18 25.759L172.101 22.9598C169.334 24.0267 166.847 25.5626 164.647 27.562L166.665 29.7818ZM173.189 25.7555C175.638 24.7935 178.186 24.3125 180.844 24.3125V21.3125C177.814 21.3125 174.893 21.8628 172.092 22.9632L173.189 25.7555ZM180.844 24.3125C183.706 24.3125 186.392 24.8662 188.915 25.9683L190.116 23.2192C187.202 21.9463 184.106 21.3125 180.844 21.3125V24.3125ZM188.929 25.9741C191.471 27.0552 193.681 28.5545 195.572 30.4744L197.709 28.3693C195.538 26.1642 192.998 24.4448 190.103 23.2134L188.929 25.9741ZM195.58 30.4825C197.469 32.3711 198.955 34.5972 200.039 37.1751L202.805 36.0124C201.576 33.0903 199.875 30.5351 197.701 28.3612L195.58 30.4825ZM200.047 37.1941C201.149 39.7154 201.703 42.4163 201.703 45.3125H204.703C204.703 42.0212 204.07 38.9096 202.796 35.9934L200.047 37.1941ZM201.703 45.3125V74H204.703V45.3125H201.703ZM203.203 72.5H190.406V75.5H203.203V72.5ZM191.906 74V45.3125H188.906V74H191.906ZM191.906 45.3125C191.906 43.804 191.618 42.3661 191.033 41.014L188.279 42.2047C188.695 43.1651 188.906 44.196 188.906 45.3125H191.906ZM191.039 41.0273C190.467 39.6685 189.672 38.4728 188.654 37.455L186.533 39.5763C187.265 40.3084 187.846 41.1753 188.274 42.1915L191.039 41.0273ZM188.654 37.455C187.643 36.4437 186.469 35.65 185.142 35.0763L183.952 37.8299C184.937 38.2562 185.794 38.8375 186.533 39.5763L188.654 37.455ZM185.142 35.0763C183.79 34.4917 182.352 34.2031 180.844 34.2031V37.2031C181.96 37.2031 182.991 37.4146 183.952 37.8299L185.142 35.0763ZM180.844 34.2031C179.309 34.2031 177.844 34.4898 176.465 35.0707L177.629 37.8356C178.624 37.4165 179.691 37.2031 180.844 37.2031V34.2031ZM176.465 35.0707C175.106 35.6428 173.91 36.4371 172.892 37.455L175.014 39.5763C175.746 38.8441 176.613 38.2634 177.629 37.8356L176.465 35.0707ZM172.892 37.455C171.875 38.4728 171.08 39.6685 170.508 41.0273L173.273 42.1915C173.701 41.1753 174.282 40.3084 175.014 39.5763L172.892 37.455ZM170.514 41.014C169.929 42.3661 169.641 43.804 169.641 45.3125H172.641C172.641 44.196 172.852 43.1651 173.267 42.2047L170.514 41.014ZM169.641 45.3125V74H172.641V45.3125H169.641ZM260.953 93.125V94.625H262.453V93.125H260.953ZM248.062 93.125H246.562V94.625H248.062V93.125ZM248.062 70.625H249.562V68.0195L247.309 69.3278L248.062 70.625ZM245.062 72.2656L244.376 70.9322L244.367 70.9365L244.359 70.941L245.062 72.2656ZM241.922 73.7188L242.458 75.1198L242.468 75.1157L242.479 75.1115L241.922 73.7188ZM238.641 74.7031L238.315 73.2388L238.306 73.2408L238.641 74.7031ZM225.328 73.1562L224.742 74.5371L224.751 74.5407L224.759 74.5441L225.328 73.1562ZM217.172 67.6719L216.104 68.7254L216.111 68.7325L217.172 67.6719ZM211.688 59.2812L210.299 59.8497L210.301 59.8544L211.688 59.2812ZM211.688 37.625L213.074 38.1981L213.076 38.1935L211.688 37.625ZM217.172 29.2344L216.118 28.1666L216.111 28.1737L217.172 29.2344ZM225.328 23.8906L225.89 25.2814L225.897 25.2785L225.328 23.8906ZM240.094 22.5781L239.716 24.0299L239.723 24.0316L240.094 22.5781ZM244.734 24.2656L244.086 25.6183L244.098 25.6239L244.109 25.6292L244.734 24.2656ZM249 26.75L248.123 27.9668L248.129 27.9715L248.136 27.9762L249 26.75ZM252.891 29.8438L251.889 30.9601L253.046 31.9986L254.042 30.8049L252.891 29.8438ZM257.859 23.8906V22.3906H257.158L256.708 22.9295L257.859 23.8906ZM260.953 23.8906H262.453V22.3906H260.953V23.8906ZM247.031 43.3906L245.637 43.9432L245.643 43.9592L245.65 43.9751L247.031 43.3906ZM244.312 39.0312L243.199 40.0362L243.205 40.043L243.211 40.0498L244.312 39.0312ZM240.234 35.9844L239.553 37.3205L239.569 37.3288L239.585 37.3367L240.234 35.9844ZM230.344 35.7969L230.911 37.1856L230.918 37.1828L230.925 37.1798L230.344 35.7969ZM226.312 38.5156L225.238 37.4692L225.231 37.4766L225.224 37.484L226.312 38.5156ZM223.641 42.8281L225.035 43.3807L225.039 43.3718L223.641 42.8281ZM223.641 54.2656L222.239 54.8007L222.243 54.8093L223.641 54.2656ZM226.312 58.5312L225.237 59.5773L225.245 59.5846L225.252 59.5919L226.312 58.5312ZM230.344 61.2031L229.777 62.5919L229.794 62.5988L229.811 62.6053L230.344 61.2031ZM240.234 60.9688L240.894 62.3159L240.905 62.3104L240.234 60.9688ZM244.312 57.9219L245.414 58.9404L245.42 58.9337L245.426 58.9268L244.312 57.9219ZM247.031 53.5625L245.646 52.9874L245.643 52.9941L245.64 53.0008L247.031 53.5625ZM260.953 91.625H248.062V94.625H260.953V91.625ZM249.562 93.125V70.625H246.562V93.125H249.562ZM247.309 69.3278C246.363 69.8772 245.385 70.412 244.376 70.9322L245.749 73.5991C246.802 73.0567 247.824 72.4978 248.816 71.9222L247.309 69.3278ZM244.359 70.941C243.408 71.4459 242.41 71.9078 241.365 72.326L242.479 75.1115C243.621 74.6547 244.717 74.1478 245.766 73.5903L244.359 70.941ZM241.386 72.3177C240.393 72.6974 239.37 73.0045 238.315 73.2388L238.966 76.1674C240.162 75.9017 241.326 75.5526 242.458 75.1198L241.386 72.3177ZM238.306 73.2408C237.323 73.4657 236.325 73.5781 235.312 73.5781V76.5781C236.55 76.5781 237.771 76.4405 238.975 76.1654L238.306 73.2408ZM235.312 73.5781C231.967 73.5781 228.833 72.9722 225.897 71.7684L224.759 74.5441C228.073 75.9028 231.595 76.5781 235.312 76.5781V73.5781ZM225.914 71.7754C222.995 70.5371 220.438 68.8168 218.233 66.6112L216.111 68.7325C218.593 71.2145 221.474 73.1504 224.742 74.5371L225.914 71.7754ZM218.24 66.6184C216.072 64.4218 214.348 61.7913 213.074 58.7081L210.301 59.8544C211.714 63.2712 213.646 66.2344 216.104 68.7254L218.24 66.6184ZM213.076 58.7128C211.813 55.6309 211.172 52.2172 211.172 48.4531H208.172C208.172 52.564 208.874 56.3691 210.299 59.8497L213.076 58.7128ZM211.172 48.4531C211.172 44.6559 211.814 41.2445 213.074 38.1981L210.301 37.0519C208.873 40.5055 208.172 44.3129 208.172 48.4531H211.172ZM213.076 38.1935C214.35 35.0807 216.072 32.4553 218.233 30.295L216.111 28.1737C213.647 30.6384 211.712 33.6068 210.299 37.0565L213.076 38.1935ZM218.225 30.3021C220.426 28.1306 222.977 26.4582 225.89 25.2814L224.766 22.4999C221.491 23.823 218.605 25.7132 216.118 28.1666L218.225 30.3021ZM225.897 25.2785C228.833 24.0746 231.967 23.4688 235.312 23.4688V20.4688C231.595 20.4688 228.073 21.1441 224.759 22.5027L225.897 25.2785ZM235.312 23.4688C236.811 23.4688 238.278 23.6559 239.716 24.0299L240.471 21.1264C238.785 20.6879 237.064 20.4688 235.312 20.4688V23.4688ZM239.723 24.0316C241.22 24.4132 242.674 24.9418 244.086 25.6183L245.383 22.9129C243.795 22.152 242.155 21.5555 240.464 21.1246L239.723 24.0316ZM244.109 25.6292C245.52 26.2759 246.858 27.0548 248.123 27.9668L249.877 25.5332C248.455 24.5077 246.948 23.6303 245.359 22.902L244.109 25.6292ZM248.136 27.9762C249.464 28.912 250.715 29.9067 251.889 30.9601L253.892 28.7274C252.629 27.5933 251.286 26.5255 249.864 25.5238L248.136 27.9762ZM254.042 30.8049L259.011 24.8518L256.708 22.9295L251.739 28.8826L254.042 30.8049ZM257.859 25.3906H260.953V22.3906H257.859V25.3906ZM259.453 23.8906V93.125H262.453V23.8906H259.453ZM249.562 48.4531C249.562 46.5006 249.178 44.6145 248.413 42.8062L245.65 43.9751C246.26 45.4167 246.562 46.9056 246.562 48.4531H249.562ZM248.426 42.8381C247.705 41.0178 246.701 39.4048 245.414 38.0127L243.211 40.0498C244.236 41.1577 245.045 42.451 245.637 43.9432L248.426 42.8381ZM245.426 38.0263C244.139 36.5995 242.621 35.4662 240.883 34.6321L239.585 37.3367C240.973 38.0026 242.174 38.9005 243.199 40.0362L245.426 38.0263ZM240.916 34.6482C239.17 33.7573 237.295 33.3125 235.312 33.3125V36.3125C236.83 36.3125 238.236 36.649 239.553 37.3205L240.916 34.6482ZM235.312 33.3125C233.37 33.3125 231.515 33.6779 229.763 34.4139L230.925 37.1798C232.297 36.6034 233.755 36.3125 235.312 36.3125V33.3125ZM229.777 34.4081C228.054 35.1112 226.538 36.1342 225.238 37.4692L227.387 39.5621C228.4 38.5221 229.571 37.7325 230.911 37.1856L229.777 34.4081ZM225.224 37.484C223.951 38.827 222.962 40.4352 222.243 42.2845L225.039 43.3718C225.632 41.846 226.424 40.5793 227.401 39.5472L225.224 37.484ZM222.246 42.2756C221.509 44.1356 221.156 46.2028 221.156 48.4531H224.156C224.156 46.516 224.46 44.8331 225.035 43.3807L222.246 42.2756ZM221.156 48.4531C221.156 50.7614 221.508 52.8844 222.239 54.8007L225.042 53.7306C224.461 52.2093 224.156 50.4574 224.156 48.4531H221.156ZM222.243 54.8093C222.963 56.6613 223.956 58.2603 225.237 59.5773L227.388 57.4852C226.419 56.4897 225.631 55.245 225.039 53.722L222.243 54.8093ZM225.252 59.5919C226.551 60.8909 228.063 61.8924 229.777 62.5919L230.911 59.8144C229.562 59.2639 228.387 58.4841 227.373 57.4706L225.252 59.5919ZM229.811 62.6053C231.552 63.2667 233.389 63.5938 235.312 63.5938V60.5938C233.736 60.5938 232.261 60.327 230.877 59.8009L229.811 62.6053ZM235.312 63.5938C237.285 63.5938 239.152 63.1692 240.894 62.3158L239.575 59.6217C238.254 60.2683 236.84 60.5938 235.312 60.5938V63.5938ZM240.905 62.3104C242.625 61.4504 244.131 60.3267 245.414 58.9404L243.211 56.9033C242.181 58.0171 240.969 58.9246 239.564 59.6271L240.905 62.3104ZM245.426 58.9268C246.702 57.5132 247.701 55.9095 248.422 54.1242L245.64 53.0008C245.049 54.4655 244.236 55.7681 243.199 56.9169L245.426 58.9268ZM248.417 54.1376C249.178 52.3036 249.562 50.4054 249.562 48.4531H246.562C246.562 50.0008 246.26 51.5089 245.646 52.9874L248.417 54.1376ZM307.641 68.1406L308.858 67.2642L307.876 65.8998L306.632 67.0307L307.641 68.1406ZM304.312 70.8125L305.175 72.0398L305.181 72.0353L304.312 70.8125ZM300.656 72.9688L301.287 74.3297L301.3 74.3234L301.314 74.3169L300.656 72.9688ZM296.672 74.375L296.308 72.9198L296.288 72.9247L296.269 72.9302L296.672 74.375ZM276.656 68.6562L275.596 69.7169L275.604 69.7251L275.612 69.7331L276.656 68.6562ZM271.828 61.2969L270.434 61.8514L270.438 61.8605L270.442 61.8695L271.828 61.2969ZM270.094 23.7969V22.2969H268.594V23.7969H270.094ZM282.844 23.7969H284.344V22.2969H282.844V23.7969ZM283.594 56.0938L282.188 56.6169L282.195 56.6368L282.203 56.6565L283.594 56.0938ZM288.75 61.4844L288.186 62.8745L288.199 62.8796L288.75 61.4844ZM296.25 61.2969L296.935 62.6312L296.942 62.6278L296.949 62.6243L296.25 61.2969ZM301.406 55.4844L302.799 56.0415L302.804 56.0297L301.406 55.4844ZM302.156 23.7969V22.2969H300.656V23.7969H302.156ZM314.953 23.7969H316.453V22.2969H314.953V23.7969ZM314.953 74V75.5H316.453V74H314.953ZM311.859 74L310.642 74.8765L311.091 75.5H311.859V74ZM306.632 67.0307C305.647 67.9261 304.584 68.7792 303.444 69.5897L305.181 72.0353C306.416 71.1583 307.572 70.2302 308.65 69.2505L306.632 67.0307ZM303.45 69.5852C302.359 70.3517 301.209 71.0301 299.999 71.6206L301.314 74.3169C302.666 73.6574 303.953 72.8983 305.175 72.0398L303.45 69.5852ZM300.026 71.6078C298.83 72.1616 297.592 72.5989 296.308 72.9198L297.036 75.8302C298.502 75.4636 299.92 74.9634 301.287 74.3297L300.026 71.6078ZM296.269 72.9302C295.057 73.2683 293.818 73.4375 292.547 73.4375V76.4375C294.088 76.4375 295.599 76.2317 297.075 75.8198L296.269 72.9302ZM292.547 73.4375C289.634 73.4375 286.919 72.9235 284.388 71.9053L283.268 74.6885C286.175 75.8578 289.272 76.4375 292.547 76.4375V73.4375ZM284.388 71.9053C281.846 70.8826 279.621 69.4413 277.7 67.5794L275.612 69.7331C277.817 71.8712 280.373 73.5237 283.268 74.6885L284.388 71.9053ZM277.717 67.5956C275.837 65.7152 274.333 63.432 273.215 60.7242L270.442 61.8695C271.698 64.9118 273.413 67.5348 275.596 69.7169L277.717 67.5956ZM273.222 60.7424C272.145 58.0368 271.594 54.9787 271.594 51.5469H268.594C268.594 55.3025 269.198 58.7444 270.434 61.8514L273.222 60.7424ZM271.594 51.5469V23.7969H268.594V51.5469H271.594ZM270.094 25.2969H282.844V22.2969H270.094V25.2969ZM281.344 23.7969V51.5469H284.344V23.7969H281.344ZM281.344 51.5469C281.344 53.382 281.616 55.079 282.188 56.6169L285 55.5706C284.572 54.421 284.344 53.0867 284.344 51.5469H281.344ZM282.203 56.6565C282.798 58.1252 283.6 59.4031 284.624 60.4638L286.782 58.38C286.056 57.6281 285.452 56.6873 284.984 55.531L282.203 56.6565ZM284.624 60.4638C285.643 61.5193 286.834 62.3262 288.186 62.8745L289.314 60.0943C288.354 59.7051 287.513 59.1369 286.782 58.38L284.624 60.4638ZM288.199 62.8796C289.571 63.4212 291.025 63.6875 292.547 63.6875V60.6875C291.382 60.6875 290.304 60.4851 289.301 60.0891L288.199 62.8796ZM292.547 63.6875C294.095 63.6875 295.565 63.3349 296.935 62.6312L295.565 59.9625C294.623 60.4463 293.623 60.6875 292.547 60.6875V63.6875ZM296.949 62.6243C298.298 61.9143 299.475 60.9872 300.473 59.8471L298.215 57.8716C297.462 58.7315 296.577 59.4294 295.551 59.9695L296.949 62.6243ZM300.473 59.8471C301.461 58.7178 302.237 57.4468 302.799 56.0415L300.014 54.9273C299.576 56.022 298.977 57.0009 298.215 57.8716L300.473 59.8471ZM302.804 56.0297C303.37 54.5788 303.656 53.0816 303.656 51.5469H300.656C300.656 52.6996 300.443 53.8274 300.009 54.9391L302.804 56.0297ZM303.656 51.5469V23.7969H300.656V51.5469H303.656ZM302.156 25.2969H314.953V22.2969H302.156V25.2969ZM313.453 23.7969V74H316.453V23.7969H313.453ZM314.953 72.5H311.859V75.5H314.953V72.5ZM313.077 73.1235L308.858 67.2642L306.423 69.0171L310.642 74.8765L313.077 73.1235ZM339.141 13.4844L337.775 12.8637L337.767 12.881L337.76 12.8986L339.141 13.4844ZM337.312 16.2031L338.351 17.2852L338.362 17.2746L338.373 17.2638L337.312 16.2031ZM334.547 18.0312L335.133 19.4121L335.143 19.4079L335.152 19.4036L334.547 18.0312ZM327.844 18.0312L327.223 19.3968L327.248 19.408L327.273 19.4183L327.844 18.0312ZM325.125 16.2031L324.043 17.2419L324.064 17.264L324.086 17.2852L325.125 16.2031ZM323.297 13.4844L321.916 14.0702L321.923 14.0877L321.931 14.1051L323.297 13.4844ZM323.297 6.875L321.924 6.26954L321.92 6.27933L321.916 6.28918L323.297 6.875ZM327.844 2.32812L328.43 3.709L328.439 3.70482L328.449 3.7005L327.844 2.32812ZM334.547 2.32812L333.926 3.69367L333.951 3.70485L333.976 3.71514L334.547 2.32812ZM337.312 4.15625L336.252 5.21691L336.263 5.22773L336.274 5.23833L337.312 4.15625ZM339.141 6.875L337.754 7.44612L337.764 7.47111L337.775 7.4957L339.141 6.875ZM337.641 74V75.5H339.141V74H337.641ZM324.75 74H323.25V75.5H324.75V74ZM324.75 23.7969V22.2969H323.25V23.7969H324.75ZM337.641 23.7969H339.141V22.2969H337.641V23.7969ZM338.344 10.1562C338.344 11.1402 338.151 12.0368 337.775 12.8637L340.506 14.1051C341.068 12.8695 341.344 11.5473 341.344 10.1562H338.344ZM337.76 12.8986C337.396 13.755 336.895 14.4994 336.252 15.1425L338.373 17.2638C339.293 16.3444 340.01 15.2763 340.521 14.0702L337.76 12.8986ZM336.274 15.121C335.628 15.7412 334.855 16.2557 333.941 16.6589L335.152 19.4036C336.363 18.8693 337.435 18.165 338.351 17.2852L336.274 15.121ZM333.961 16.6504C333.126 17.0046 332.217 17.1875 331.219 17.1875V20.1875C332.595 20.1875 333.905 19.9329 335.133 19.4121L333.961 16.6504ZM331.219 17.1875C330.22 17.1875 329.29 17.0046 328.415 16.6442L327.273 19.4183C328.522 19.9329 329.842 20.1875 331.219 20.1875V17.1875ZM328.464 16.6657C327.58 16.2639 326.817 15.7483 326.164 15.121L324.086 17.2852C324.995 18.158 326.045 18.8611 327.223 19.3968L328.464 16.6657ZM326.207 15.1643C325.58 14.511 325.064 13.7477 324.662 12.8637L321.931 14.1051C322.467 15.2835 323.17 16.3328 324.043 17.2419L326.207 15.1643ZM324.678 12.8986C324.324 12.0636 324.141 11.1547 324.141 10.1562H321.141C321.141 11.5328 321.395 12.8427 321.916 14.0702L324.678 12.8986ZM324.141 10.1562C324.141 9.19467 324.321 8.30077 324.678 7.46082L321.916 6.28918C321.397 7.51173 321.141 8.80533 321.141 10.1562H324.141ZM324.669 7.48046C325.07 6.57153 325.579 5.82384 326.186 5.21691L324.064 3.09559C323.171 3.98866 322.461 5.05347 321.924 6.26954L324.669 7.48046ZM326.186 5.21691C326.829 4.57383 327.573 4.07232 328.43 3.709L327.258 0.947252C326.052 1.45893 324.984 2.17617 324.064 3.09559L326.186 5.21691ZM328.449 3.7005C329.317 3.31784 330.235 3.125 331.219 3.125V0.125C329.828 0.125 328.496 0.400912 327.238 0.955748L328.449 3.7005ZM331.219 3.125C332.203 3.125 333.099 3.31781 333.926 3.69367L335.168 0.962575C333.932 0.400945 332.61 0.125 331.219 0.125V3.125ZM333.976 3.71514C334.863 4.08031 335.616 4.5813 336.252 5.21691L338.373 3.09559C337.446 2.1687 336.356 1.45094 335.118 0.941108L333.976 3.71514ZM336.274 5.23833C336.896 5.83535 337.391 6.56432 337.754 7.44612L340.528 6.30388C340.016 5.06068 339.292 3.97715 338.351 3.07417L336.274 5.23833ZM337.775 7.4957C338.153 8.32791 338.344 9.20956 338.344 10.1562H341.344C341.344 8.79044 341.065 7.48459 340.506 6.2543L337.775 7.4957ZM337.641 72.5H324.75V75.5H337.641V72.5ZM326.25 74V23.7969H323.25V74H326.25ZM324.75 25.2969H337.641V22.2969H324.75V25.2969ZM336.141 23.7969V74H339.141V23.7969H336.141ZM360.328 74V75.5H361.828V74H360.328ZM347.438 74H345.938V75.5H347.438V74ZM347.438 3.82812V2.32812H345.938V3.82812H347.438ZM360.328 3.82812H361.828V2.32812H360.328V3.82812ZM360.328 72.5H347.438V75.5H360.328V72.5ZM348.938 74V3.82812H345.938V74H348.938ZM347.438 5.32812H360.328V2.32812H347.438V5.32812ZM358.828 3.82812V74H361.828V3.82812H358.828ZM416.625 58.9531L418.009 59.531L418.011 59.5263L416.625 58.9531ZM411.141 67.3438L412.208 68.3973L412.215 68.3902L411.141 67.3438ZM402.984 72.9219L403.582 74.2977L403.588 74.2948L402.984 72.9219ZM383.016 72.9219L382.406 74.2926L382.415 74.2963L382.423 74.2999L383.016 72.9219ZM374.859 67.3438L373.785 68.3902L373.792 68.3973L373.799 68.4044L374.859 67.3438ZM369.375 58.9531L367.989 59.5263L367.991 59.531L369.375 58.9531ZM374.859 29.4688L373.792 28.4151L373.792 28.4152L374.859 29.4688ZM383.016 23.8906L382.423 22.5126L382.418 22.5148L383.016 23.8906ZM402.984 23.7969L402.41 25.1827L402.419 25.1862L402.427 25.1896L402.984 23.7969ZM411.141 29.1875L410.073 30.241L410.08 30.2482L411.141 29.1875ZM416.625 37.5781L415.237 38.1466L415.239 38.1513L416.625 37.5781ZM404.719 42.875L403.321 43.4187L403.327 43.4344L403.333 43.4501L404.719 42.875ZM402 38.5625L400.912 39.5949L400.919 39.602L400.925 39.6089L402 38.5625ZM397.922 35.7969L397.331 37.1756L397.348 37.1828L397.365 37.1896L397.922 35.7969ZM388.031 35.7969L388.598 37.1856L388.605 37.1828L388.612 37.1798L388.031 35.7969ZM384 38.5625L382.912 37.5301L382.911 37.5309L384 38.5625ZM381.328 42.875L382.723 43.4276L382.726 43.4187L381.328 42.875ZM384 58.1562L382.898 59.1737L382.905 59.1812L382.912 59.1886L384 58.1562ZM388.031 61.0625L387.394 62.4204L387.41 62.4281L387.427 62.4355L388.031 61.0625ZM397.922 61.1094L397.341 59.7264L397.331 59.7307L397.922 61.1094ZM404.719 54.0312L403.33 53.4653L403.325 53.4764L403.321 53.4876L404.719 54.0312ZM417.141 48.4531C417.141 52.0197 416.503 55.3235 415.239 58.38L418.011 59.5263C419.435 56.0827 420.141 52.3866 420.141 48.4531H417.141ZM415.241 58.3752C413.966 61.429 412.24 64.0646 410.066 66.2973L412.215 68.3902C414.666 65.8729 416.597 62.9148 418.009 59.531L415.241 58.3752ZM410.073 66.2902C407.898 68.4942 405.338 70.2473 402.38 71.5489L403.588 74.2948C406.88 72.8464 409.758 70.8808 412.208 68.3973L410.073 66.2902ZM402.387 71.546C399.492 72.8033 396.369 73.4375 393 73.4375V76.4375C396.756 76.4375 400.289 75.7279 403.582 74.2977L402.387 71.546ZM393 73.4375C389.665 73.4375 386.539 72.8041 383.608 71.5439L382.423 74.2999C385.742 75.7272 389.273 76.4375 393 76.4375V73.4375ZM383.625 71.5512C380.696 70.2493 378.131 68.4938 375.92 66.2831L373.799 68.4044C376.275 70.8812 379.148 72.8445 382.406 74.2926L383.625 71.5512ZM375.934 66.2973C373.76 64.0646 372.034 61.429 370.759 58.3752L367.991 59.531C369.403 62.9148 371.334 65.8729 373.785 68.3902L375.934 66.2973ZM370.761 58.38C369.497 55.3235 368.859 52.0197 368.859 48.4531H365.859C365.859 52.3866 366.565 56.0827 367.989 59.5263L370.761 58.38ZM368.859 48.4531C368.859 44.8206 369.499 41.486 370.761 38.4325L367.989 37.2862C366.564 40.7328 365.859 44.4606 365.859 48.4531H368.859ZM370.761 38.4325C372.036 35.3494 373.76 32.7188 375.927 30.5223L373.792 28.4152C371.334 30.9062 369.402 33.8694 367.989 37.2862L370.761 38.4325ZM375.927 30.5224C378.135 28.2853 380.693 26.5347 383.613 25.2665L382.418 22.5148C379.15 23.9341 376.272 25.9022 373.792 28.4151L375.927 30.5224ZM383.608 25.2686C386.539 24.0084 389.665 23.375 393 23.375V20.375C389.273 20.375 385.742 21.0853 382.423 22.5126L383.608 25.2686ZM393 23.375C396.378 23.375 399.51 23.9816 402.41 25.1827L403.558 22.411C400.271 21.0497 396.747 20.375 393 20.375V23.375ZM402.427 25.1896C405.365 26.3646 407.909 28.0476 410.073 30.241L412.208 28.134C409.748 25.6399 406.854 23.7291 403.541 22.4042L402.427 25.1896ZM410.08 30.2482C412.24 32.4085 413.962 35.0339 415.237 38.1466L418.013 37.0097C416.6 33.5599 414.666 30.5915 412.201 28.1268L410.08 30.2482ZM415.239 38.1513C416.498 41.1962 417.141 44.6229 417.141 48.4531H420.141C420.141 44.2833 419.44 40.46 418.011 37.005L415.239 38.1513ZM407.25 48.4531C407.25 46.2226 406.878 44.1638 406.104 42.2999L403.333 43.4501C403.935 44.8987 404.25 46.5586 404.25 48.4531H407.25ZM406.117 42.3313C405.394 40.4737 404.384 38.8606 403.075 37.5161L400.925 39.6089C401.929 40.6394 402.731 41.9013 403.321 43.4187L406.117 42.3313ZM403.088 37.5301C401.783 36.1541 400.242 35.1094 398.479 34.4042L397.365 37.1896C398.727 37.7344 399.905 38.5334 400.912 39.5949L403.088 37.5301ZM398.513 34.4182C396.785 33.6779 394.943 33.3125 393 33.3125V36.3125C394.557 36.3125 395.996 36.6034 397.331 37.1756L398.513 34.4182ZM393 33.3125C391.057 33.3125 389.203 33.6779 387.45 34.4139L388.612 37.1798C389.985 36.6034 391.443 36.3125 393 36.3125V33.3125ZM387.464 34.4081C385.733 35.1149 384.212 36.1594 382.912 37.5301L385.088 39.5949C386.1 38.5281 387.267 37.7289 388.598 37.1856L387.464 34.4081ZM382.911 37.5309C381.639 38.8738 380.649 40.4821 379.93 42.3313L382.726 43.4187C383.319 41.8929 384.111 40.6262 385.089 39.5941L382.911 37.5309ZM379.934 42.3225C379.198 44.18 378.844 46.2309 378.844 48.4531H381.844C381.844 46.5504 382.146 44.8825 382.723 43.4275L379.934 42.3225ZM378.844 48.4531C378.844 50.5632 379.202 52.5493 379.934 54.3963L382.723 53.2912C382.142 51.8257 381.844 50.2181 381.844 48.4531H378.844ZM379.934 54.3963C380.653 56.2114 381.639 57.8095 382.898 59.1737L385.102 57.1388C384.111 56.0655 383.316 54.7886 382.723 53.2912L379.934 54.3963ZM382.912 59.1886C384.198 60.544 385.695 61.6227 387.394 62.4204L388.669 59.7046C387.305 59.0648 386.115 58.206 385.088 57.1239L382.912 59.1886ZM387.427 62.4355C389.185 63.2089 391.047 63.5938 393 63.5938V60.5938C391.453 60.5938 390.003 60.2911 388.635 59.6895L387.427 62.4355ZM393 63.5938C394.943 63.5938 396.785 63.2284 398.513 62.4881L397.331 59.7307C395.996 60.3029 394.557 60.5938 393 60.5938V63.5938ZM398.503 62.4923C400.246 61.76 401.775 60.7251 403.075 59.3902L400.925 57.2973C399.913 58.3374 398.722 59.1463 397.341 59.7264L398.503 62.4923ZM403.075 59.3902C404.384 58.0456 405.394 56.4325 406.117 54.5749L403.321 53.4876C402.731 55.005 401.929 56.2669 400.925 57.2973L403.075 59.3902ZM406.108 54.5972C406.877 52.7105 407.25 50.6562 407.25 48.4531H404.25C404.25 50.3126 403.936 51.977 403.33 53.4653L406.108 54.5972Z" fill="white"/>
</g>
<defs>
<filter id="filter0_d" x="0.5" y="0.125" width="423.641" height="102.5" filterUnits="userSpaceOnUse" color-interpolation-filters="sRGB">
<feFlood flood-opacity="0" result="BackgroundImageFix"/>
<feColorMatrix in="SourceAlpha" type="matrix" values="0 0 0 0 0 0 0 0 0 0 0 0 0 0 0 0 0 0 127 0"/>
<feOffset dy="4"/>
<feGaussianBlur stdDeviation="2"/>
<feColorMatrix type="matrix" values="0 0 0 0 0 0 0 0 0 0 0 0 0 0 0 0 0 0 0.25 0"/>
<feBlend mode="normal" in2="BackgroundImageFix" result="effect1_dropShadow"/>
<feBlend mode="normal" in="SourceGraphic" in2="effect1_dropShadow" result="shape"/>
</filter>
</defs>
</svg>
